<mxfile host="app.diagrams.net" agent="Mozilla/5.0 (Windows NT 10.0; Win64; x64) AppleWebKit/537.36 (KHTML, like Gecko) Chrome/129.0.0.0 Safari/537.36" version="24.7.17">
  <diagram name="Page-1" id="zk08GGSLH0ju8p5wsRWp">
    <mxGraphModel dx="2284" dy="778" grid="1" gridSize="10" guides="1" tooltips="1" connect="1" arrows="1" fold="1" page="1" pageScale="1" pageWidth="850" pageHeight="1100" math="0" shadow="0">
      <root>
        <mxCell id="0" />
        <mxCell id="1" parent="0" />
        <mxCell id="gZMPMyxucFV0rXoEaZZk-1" value="" style="rounded=1;whiteSpace=wrap;html=1;arcSize=4;" vertex="1" parent="1">
          <mxGeometry x="-30" y="50" width="1010" height="530" as="geometry" />
        </mxCell>
        <mxCell id="SUuhbvL8BYw0GbxjmWys-1" value="&lt;font style=&quot;font-size: 14px;&quot;&gt;Pre-flight mode&lt;/font&gt;" style="swimlane;whiteSpace=wrap;html=1;fillColor=#ffe6cc;strokeColor=#d79b00;rounded=1;shadow=1;" parent="1" vertex="1">
          <mxGeometry x="40" y="180" width="200" height="200" as="geometry" />
        </mxCell>
        <mxCell id="SUuhbvL8BYw0GbxjmWys-26" value="&lt;ul&gt;&lt;li&gt;&lt;span style=&quot;background-color: initial;&quot;&gt;Battery voltage check&lt;/span&gt;&lt;/li&gt;&lt;li&gt;&lt;span style=&quot;background-color: initial;&quot;&gt;Igniter continuity check&lt;/span&gt;&lt;/li&gt;&lt;li&gt;&lt;span style=&quot;background-color: initial;&quot;&gt;GPS FIX check&lt;/span&gt;&lt;/li&gt;&lt;li&gt;&lt;span style=&quot;background-color: initial;&quot;&gt;Initial altitude&lt;/span&gt;&lt;/li&gt;&lt;li&gt;Armed pyro&lt;/li&gt;&lt;/ul&gt;" style="text;html=1;strokeColor=none;fillColor=none;align=left;verticalAlign=middle;whiteSpace=wrap;rounded=0;" parent="SUuhbvL8BYw0GbxjmWys-1" vertex="1">
          <mxGeometry x="-20" y="30" width="190" height="100" as="geometry" />
        </mxCell>
        <mxCell id="RUACxyQfbmmbPPVV1Z21-7" value="" style="shape=curlyBracket;whiteSpace=wrap;html=1;rounded=1;flipH=1;labelPosition=right;verticalLabelPosition=middle;align=left;verticalAlign=middle;strokeWidth=2;rotation=-180;size=0.5;shadow=1;" parent="SUuhbvL8BYw0GbxjmWys-1" vertex="1">
          <mxGeometry x="-30" y="35" width="20" height="100" as="geometry" />
        </mxCell>
        <mxCell id="RUACxyQfbmmbPPVV1Z21-8" value="No data logging" style="text;html=1;strokeColor=#d79b00;fillColor=#ffe6cc;align=center;verticalAlign=middle;whiteSpace=wrap;rounded=0;" parent="SUuhbvL8BYw0GbxjmWys-1" vertex="1">
          <mxGeometry y="170" width="200" height="30" as="geometry" />
        </mxCell>
        <mxCell id="RUACxyQfbmmbPPVV1Z21-9" value="Low power mode" style="text;html=1;strokeColor=#82b366;fillColor=#d5e8d4;align=center;verticalAlign=middle;whiteSpace=wrap;rounded=0;" parent="SUuhbvL8BYw0GbxjmWys-1" vertex="1">
          <mxGeometry x="100" y="140" width="100" height="30" as="geometry" />
        </mxCell>
        <mxCell id="RUACxyQfbmmbPPVV1Z21-12" value="Buzzer&amp;nbsp;" style="text;html=1;strokeColor=#9673a6;fillColor=#e1d5e7;align=center;verticalAlign=middle;whiteSpace=wrap;rounded=0;" parent="SUuhbvL8BYw0GbxjmWys-1" vertex="1">
          <mxGeometry y="140" width="100" height="30" as="geometry" />
        </mxCell>
        <mxCell id="SUuhbvL8BYw0GbxjmWys-19" style="edgeStyle=orthogonalEdgeStyle;rounded=0;orthogonalLoop=1;jettySize=auto;html=1;exitX=1;exitY=0.5;exitDx=0;exitDy=0;entryX=0;entryY=0.5;entryDx=0;entryDy=0;shadow=1;" parent="1" source="SUuhbvL8BYw0GbxjmWys-2" target="SUuhbvL8BYw0GbxjmWys-4" edge="1">
          <mxGeometry relative="1" as="geometry" />
        </mxCell>
        <mxCell id="SUuhbvL8BYw0GbxjmWys-18" style="edgeStyle=orthogonalEdgeStyle;rounded=0;orthogonalLoop=1;jettySize=auto;html=1;exitX=1;exitY=0.5;exitDx=0;exitDy=0;entryX=0;entryY=0.5;entryDx=0;entryDy=0;shadow=1;" parent="1" source="SUuhbvL8BYw0GbxjmWys-3" target="SUuhbvL8BYw0GbxjmWys-2" edge="1">
          <mxGeometry relative="1" as="geometry" />
        </mxCell>
        <mxCell id="SUuhbvL8BYw0GbxjmWys-3" value="&lt;font style=&quot;font-size: 14px;&quot;&gt;Flight mode&lt;/font&gt;" style="swimlane;whiteSpace=wrap;html=1;fillColor=#dae8fc;strokeColor=#6c8ebf;rounded=1;shadow=1;" parent="1" vertex="1">
          <mxGeometry x="270" y="180" width="210" height="200" as="geometry" />
        </mxCell>
        <mxCell id="SUuhbvL8BYw0GbxjmWys-22" value="&lt;ul&gt;&lt;li&gt;Altitude&lt;/li&gt;&lt;li&gt;GPS&lt;/li&gt;&lt;li&gt;Acceleration&lt;/li&gt;&lt;li&gt;Roll, pitch, yaw&lt;/li&gt;&lt;li&gt;Drogue event&lt;/li&gt;&lt;/ul&gt;" style="text;strokeColor=none;fillColor=none;align=left;verticalAlign=middle;spacingLeft=4;spacingRight=4;overflow=hidden;points=[[0,0.5],[1,0.5]];portConstraint=eastwest;rotatable=0;whiteSpace=wrap;html=1;" parent="SUuhbvL8BYw0GbxjmWys-3" vertex="1">
          <mxGeometry x="-20" y="20" width="150" height="120" as="geometry" />
        </mxCell>
        <mxCell id="RUACxyQfbmmbPPVV1Z21-4" value="Full data logging to on board memory" style="text;html=1;strokeColor=#6c8ebf;fillColor=#dae8fc;align=center;verticalAlign=middle;whiteSpace=wrap;rounded=0;" parent="SUuhbvL8BYw0GbxjmWys-3" vertex="1">
          <mxGeometry y="170" width="210" height="30" as="geometry" />
        </mxCell>
        <mxCell id="SUuhbvL8BYw0GbxjmWys-4" value="&lt;font style=&quot;font-size: 14px;&quot;&gt;Post-flight mode&lt;/font&gt;" style="swimlane;whiteSpace=wrap;html=1;startSize=23;fillColor=#ffe6cc;strokeColor=#d79b00;rounded=1;shadow=1;" parent="1" vertex="1">
          <mxGeometry x="730" y="180" width="200" height="200" as="geometry" />
        </mxCell>
        <mxCell id="RUACxyQfbmmbPPVV1Z21-3" value="&lt;ul&gt;&lt;li&gt;GPS&lt;/li&gt;&lt;li&gt;Altitude&lt;/li&gt;&lt;li&gt;Beacon signal&lt;/li&gt;&lt;/ul&gt;" style="text;html=1;strokeColor=none;fillColor=none;align=left;verticalAlign=middle;whiteSpace=wrap;rounded=0;" parent="SUuhbvL8BYw0GbxjmWys-4" vertex="1">
          <mxGeometry x="-15" y="50" width="130" height="30" as="geometry" />
        </mxCell>
        <mxCell id="RUACxyQfbmmbPPVV1Z21-10" value="Low power mode" style="text;html=1;strokeColor=#82b366;fillColor=#d5e8d4;align=center;verticalAlign=middle;whiteSpace=wrap;rounded=0;" parent="SUuhbvL8BYw0GbxjmWys-4" vertex="1">
          <mxGeometry x="100" y="170" width="100" height="30" as="geometry" />
        </mxCell>
        <mxCell id="RUACxyQfbmmbPPVV1Z21-11" value="No data logging" style="text;html=1;strokeColor=#d79b00;fillColor=#ffe6cc;align=center;verticalAlign=middle;whiteSpace=wrap;rounded=0;" parent="SUuhbvL8BYw0GbxjmWys-4" vertex="1">
          <mxGeometry y="170" width="100" height="30" as="geometry" />
        </mxCell>
        <mxCell id="SUuhbvL8BYw0GbxjmWys-5" value="" style="shape=flexArrow;endArrow=classic;html=1;rounded=0;fillColor=#dae8fc;strokeColor=#6c8ebf;strokeWidth=2;shadow=1;" parent="1" edge="1">
          <mxGeometry width="50" height="50" relative="1" as="geometry">
            <mxPoint x="40" y="150" as="sourcePoint" />
            <mxPoint x="930" y="150" as="targetPoint" />
            <Array as="points">
              <mxPoint x="490" y="150" />
            </Array>
          </mxGeometry>
        </mxCell>
        <mxCell id="SUuhbvL8BYw0GbxjmWys-7" value="" style="endArrow=none;dashed=1;html=1;rounded=0;entryX=0.5;entryY=1;entryDx=0;entryDy=0;shadow=1;" parent="1" target="SUuhbvL8BYw0GbxjmWys-8" edge="1">
          <mxGeometry width="50" height="50" relative="1" as="geometry">
            <mxPoint x="40" y="140" as="sourcePoint" />
            <mxPoint x="40" y="90" as="targetPoint" />
          </mxGeometry>
        </mxCell>
        <mxCell id="SUuhbvL8BYw0GbxjmWys-8" value="Avionics armed with pull-pins" style="rounded=1;whiteSpace=wrap;html=1;strokeColor=#dae8fc;shadow=1;" parent="1" vertex="1">
          <mxGeometry x="-10" y="70" width="100" height="40" as="geometry" />
        </mxCell>
        <mxCell id="SUuhbvL8BYw0GbxjmWys-9" value="" style="endArrow=none;dashed=1;html=1;rounded=0;entryX=0.5;entryY=1;entryDx=0;entryDy=0;shadow=1;" parent="1" target="SUuhbvL8BYw0GbxjmWys-10" edge="1">
          <mxGeometry width="50" height="50" relative="1" as="geometry">
            <mxPoint x="250" y="140" as="sourcePoint" />
            <mxPoint x="250" y="90" as="targetPoint" />
          </mxGeometry>
        </mxCell>
        <mxCell id="SUuhbvL8BYw0GbxjmWys-10" value="Launch" style="rounded=1;whiteSpace=wrap;html=1;strokeColor=#dae8fc;shadow=1;" parent="1" vertex="1">
          <mxGeometry x="210" y="70" width="80" height="40" as="geometry" />
        </mxCell>
        <mxCell id="SUuhbvL8BYw0GbxjmWys-11" value="" style="endArrow=none;dashed=1;html=1;rounded=0;entryX=0.5;entryY=1;entryDx=0;entryDy=0;shadow=1;" parent="1" target="SUuhbvL8BYw0GbxjmWys-12" edge="1">
          <mxGeometry width="50" height="50" relative="1" as="geometry">
            <mxPoint x="488" y="140" as="sourcePoint" />
            <mxPoint x="485" y="90" as="targetPoint" />
          </mxGeometry>
        </mxCell>
        <mxCell id="SUuhbvL8BYw0GbxjmWys-12" value="Main chute deployment" style="rounded=1;whiteSpace=wrap;html=1;strokeColor=#dae8fc;shadow=1;" parent="1" vertex="1">
          <mxGeometry x="440" y="70" width="95" height="40" as="geometry" />
        </mxCell>
        <mxCell id="SUuhbvL8BYw0GbxjmWys-13" value="" style="endArrow=none;dashed=1;html=1;rounded=0;entryX=0.5;entryY=1;entryDx=0;entryDy=0;shadow=1;" parent="1" target="SUuhbvL8BYw0GbxjmWys-14" edge="1">
          <mxGeometry width="50" height="50" relative="1" as="geometry">
            <mxPoint x="715" y="140" as="sourcePoint" />
            <mxPoint x="710" y="90" as="targetPoint" />
          </mxGeometry>
        </mxCell>
        <mxCell id="SUuhbvL8BYw0GbxjmWys-14" value="Landing" style="rounded=1;whiteSpace=wrap;html=1;strokeColor=#dae8fc;shadow=1;" parent="1" vertex="1">
          <mxGeometry x="680" y="70" width="70" height="40" as="geometry" />
        </mxCell>
        <mxCell id="SUuhbvL8BYw0GbxjmWys-15" value="" style="endArrow=none;dashed=1;html=1;rounded=0;entryX=0.5;entryY=1;entryDx=0;entryDy=0;shadow=1;" parent="1" target="SUuhbvL8BYw0GbxjmWys-16" edge="1">
          <mxGeometry width="50" height="50" relative="1" as="geometry">
            <mxPoint x="895" y="140" as="sourcePoint" />
            <mxPoint x="930" y="90" as="targetPoint" />
          </mxGeometry>
        </mxCell>
        <mxCell id="SUuhbvL8BYw0GbxjmWys-16" value="Recovery" style="rounded=1;whiteSpace=wrap;html=1;strokeColor=#dae8fc;shadow=1;" parent="1" vertex="1">
          <mxGeometry x="860" y="70" width="70" height="40" as="geometry" />
        </mxCell>
        <mxCell id="SUuhbvL8BYw0GbxjmWys-23" value="&lt;font size=&quot;1&quot; style=&quot;&quot;&gt;&lt;b style=&quot;&quot;&gt;Data sent to ground station&lt;/b&gt;&lt;/font&gt;" style="text;html=1;strokeColor=none;fillColor=none;align=center;verticalAlign=middle;whiteSpace=wrap;rounded=0;rotation=-90;shadow=1;" parent="1" vertex="1">
          <mxGeometry x="-100" y="250" width="190" height="30" as="geometry" />
        </mxCell>
        <mxCell id="RUACxyQfbmmbPPVV1Z21-17" style="edgeStyle=orthogonalEdgeStyle;rounded=0;orthogonalLoop=1;jettySize=auto;html=1;exitX=1;exitY=0.5;exitDx=0;exitDy=0;entryX=0.5;entryY=1;entryDx=0;entryDy=0;shadow=1;" parent="1" source="RUACxyQfbmmbPPVV1Z21-15" target="RUACxyQfbmmbPPVV1Z21-4" edge="1">
          <mxGeometry relative="1" as="geometry" />
        </mxCell>
        <mxCell id="RUACxyQfbmmbPPVV1Z21-15" value="Manual activation&amp;nbsp;&lt;br&gt;Signal from bluetooth app" style="rounded=1;whiteSpace=wrap;html=1;fillColor=#f8cecc;strokeColor=#b85450;shadow=1;" parent="1" vertex="1">
          <mxGeometry x="200" y="390" width="110" height="50" as="geometry" />
        </mxCell>
        <mxCell id="RUACxyQfbmmbPPVV1Z21-16" style="edgeStyle=orthogonalEdgeStyle;rounded=0;orthogonalLoop=1;jettySize=auto;html=1;entryX=0;entryY=0.5;entryDx=0;entryDy=0;shadow=1;" parent="1" source="RUACxyQfbmmbPPVV1Z21-8" target="RUACxyQfbmmbPPVV1Z21-15" edge="1">
          <mxGeometry relative="1" as="geometry">
            <Array as="points">
              <mxPoint x="140" y="415" />
            </Array>
          </mxGeometry>
        </mxCell>
        <mxCell id="RUACxyQfbmmbPPVV1Z21-21" value="" style="shape=curlyBracket;whiteSpace=wrap;html=1;rounded=1;labelPosition=left;verticalLabelPosition=middle;align=right;verticalAlign=middle;shadow=1;" parent="1" vertex="1">
          <mxGeometry x="410" y="440" width="20" height="120" as="geometry" />
        </mxCell>
        <mxCell id="RUACxyQfbmmbPPVV1Z21-22" value="&lt;font size=&quot;1&quot; style=&quot;&quot;&gt;&lt;b style=&quot;font-size: 12px;&quot;&gt;Legend&lt;/b&gt;&lt;/font&gt;" style="text;html=1;strokeColor=none;fillColor=none;align=center;verticalAlign=middle;whiteSpace=wrap;rounded=0;rotation=-90;shadow=1;" parent="1" vertex="1">
          <mxGeometry x="300" y="485" width="190" height="30" as="geometry" />
        </mxCell>
        <mxCell id="RUACxyQfbmmbPPVV1Z21-23" value="Low power mode" style="swimlane;fontStyle=0;childLayout=stackLayout;horizontal=1;startSize=30;horizontalStack=0;resizeParent=1;resizeParentMax=0;resizeLast=0;collapsible=1;marginBottom=0;whiteSpace=wrap;html=1;fillColor=#d5e8d4;strokeColor=#82b366;rounded=1;shadow=1;" parent="1" vertex="1">
          <mxGeometry x="710" y="440" width="200" height="120" as="geometry">
            <mxRectangle x="690" y="430" width="130" height="30" as="alternateBounds" />
          </mxGeometry>
        </mxCell>
        <mxCell id="RUACxyQfbmmbPPVV1Z21-24" value="Sensors turned to low power mode or simply off" style="text;strokeColor=none;fillColor=none;align=left;verticalAlign=middle;spacingLeft=4;spacingRight=4;overflow=hidden;points=[[0,0.5],[1,0.5]];portConstraint=eastwest;rotatable=0;whiteSpace=wrap;html=1;" parent="RUACxyQfbmmbPPVV1Z21-23" vertex="1">
          <mxGeometry y="30" width="200" height="30" as="geometry" />
        </mxCell>
        <mxCell id="RUACxyQfbmmbPPVV1Z21-25" value="&lt;span style=&quot;background-color: initial;&quot;&gt;RFD900x&amp;nbsp; broadcasting power&lt;/span&gt;" style="text;strokeColor=none;fillColor=none;align=left;verticalAlign=middle;spacingLeft=4;spacingRight=4;overflow=hidden;points=[[0,0.5],[1,0.5]];portConstraint=eastwest;rotatable=0;whiteSpace=wrap;html=1;" parent="RUACxyQfbmmbPPVV1Z21-23" vertex="1">
          <mxGeometry y="60" width="200" height="30" as="geometry" />
        </mxCell>
        <mxCell id="RUACxyQfbmmbPPVV1Z21-29" value="" style="endArrow=classic;html=1;rounded=0;fillColor=#60a917;strokeColor=#2D7600;" parent="RUACxyQfbmmbPPVV1Z21-23" edge="1">
          <mxGeometry width="50" height="50" relative="1" as="geometry">
            <mxPoint x="180" y="65" as="sourcePoint" />
            <mxPoint x="190" y="85" as="targetPoint" />
          </mxGeometry>
        </mxCell>
        <mxCell id="RUACxyQfbmmbPPVV1Z21-26" value="Frequency of communications" style="text;strokeColor=none;fillColor=none;align=left;verticalAlign=middle;spacingLeft=4;spacingRight=4;overflow=hidden;points=[[0,0.5],[1,0.5]];portConstraint=eastwest;rotatable=0;whiteSpace=wrap;html=1;" parent="RUACxyQfbmmbPPVV1Z21-23" vertex="1">
          <mxGeometry y="90" width="200" height="30" as="geometry" />
        </mxCell>
        <mxCell id="RUACxyQfbmmbPPVV1Z21-28" value="" style="endArrow=classic;html=1;rounded=0;fillColor=#60a917;strokeColor=#2D7600;" parent="RUACxyQfbmmbPPVV1Z21-23" edge="1">
          <mxGeometry width="50" height="50" relative="1" as="geometry">
            <mxPoint x="180" y="95" as="sourcePoint" />
            <mxPoint x="190" y="115" as="targetPoint" />
          </mxGeometry>
        </mxCell>
        <mxCell id="RUACxyQfbmmbPPVV1Z21-30" value="Buzzer" style="swimlane;fontStyle=0;childLayout=stackLayout;horizontal=1;startSize=30;horizontalStack=0;resizeParent=1;resizeParentMax=0;resizeLast=0;collapsible=1;marginBottom=0;whiteSpace=wrap;html=1;fillColor=#e1d5e7;strokeColor=#9673a6;rounded=1;shadow=1;" parent="1" vertex="1">
          <mxGeometry x="460" y="440" width="230" height="120" as="geometry" />
        </mxCell>
        <mxCell id="RUACxyQfbmmbPPVV1Z21-31" value="Sequence to confirm the rocket is armed" style="text;strokeColor=none;fillColor=none;align=left;verticalAlign=middle;spacingLeft=4;spacingRight=4;overflow=hidden;points=[[0,0.5],[1,0.5]];portConstraint=eastwest;rotatable=0;whiteSpace=wrap;html=1;" parent="RUACxyQfbmmbPPVV1Z21-30" vertex="1">
          <mxGeometry y="30" width="230" height="30" as="geometry" />
        </mxCell>
        <mxCell id="RUACxyQfbmmbPPVV1Z21-32" value="Sequence to confirm there is a GPS FIX" style="text;strokeColor=none;fillColor=none;align=left;verticalAlign=middle;spacingLeft=4;spacingRight=4;overflow=hidden;points=[[0,0.5],[1,0.5]];portConstraint=eastwest;rotatable=0;whiteSpace=wrap;html=1;" parent="RUACxyQfbmmbPPVV1Z21-30" vertex="1">
          <mxGeometry y="60" width="230" height="30" as="geometry" />
        </mxCell>
        <mxCell id="RUACxyQfbmmbPPVV1Z21-33" value="Sequence to confirm igniter continuity" style="text;strokeColor=none;fillColor=none;align=left;verticalAlign=middle;spacingLeft=4;spacingRight=4;overflow=hidden;points=[[0,0.5],[1,0.5]];portConstraint=eastwest;rotatable=0;whiteSpace=wrap;html=1;" parent="RUACxyQfbmmbPPVV1Z21-30" vertex="1">
          <mxGeometry y="90" width="230" height="30" as="geometry" />
        </mxCell>
        <mxCell id="SUuhbvL8BYw0GbxjmWys-2" value="&lt;font style=&quot;font-size: 14px;&quot;&gt;Descent mode&lt;/font&gt;" style="swimlane;whiteSpace=wrap;html=1;fillColor=#dae8fc;strokeColor=#6c8ebf;rounded=1;shadow=1;" parent="1" vertex="1">
          <mxGeometry x="500" y="180" width="210" height="200" as="geometry" />
        </mxCell>
        <mxCell id="SUuhbvL8BYw0GbxjmWys-25" value="&lt;ul&gt;&lt;li&gt;Altitude&lt;/li&gt;&lt;li&gt;&lt;span style=&quot;background-color: initial;&quot;&gt;GPS&lt;/span&gt;&lt;br&gt;&lt;/li&gt;&lt;li&gt;Acceleration&lt;/li&gt;&lt;li style=&quot;border-color: var(--border-color);&quot;&gt;Roll, pitch, yaw&lt;/li&gt;&lt;li style=&quot;border-color: var(--border-color);&quot;&gt;Main event&lt;/li&gt;&lt;/ul&gt;" style="text;html=1;strokeColor=none;fillColor=none;align=left;verticalAlign=middle;whiteSpace=wrap;rounded=0;" parent="SUuhbvL8BYw0GbxjmWys-2" vertex="1">
          <mxGeometry x="-20" y="40" width="150" height="80" as="geometry" />
        </mxCell>
        <mxCell id="RUACxyQfbmmbPPVV1Z21-5" value="Full data logging to on board memory" style="text;html=1;strokeColor=#6c8ebf;fillColor=#dae8fc;align=center;verticalAlign=middle;whiteSpace=wrap;rounded=0;" parent="SUuhbvL8BYw0GbxjmWys-2" vertex="1">
          <mxGeometry y="170" width="210" height="30" as="geometry" />
        </mxCell>
      </root>
    </mxGraphModel>
  </diagram>
</mxfile>
